<?xml version="1.0" encoding="utf-8"?>
<!DOCTYPE svg PUBLIC "-//W3C//DTD SVG 20010904//EN"
 "http://www.w3.org/TR/2001/REC-SVG-20010904/DTD/svg10.dtd">
<svg version="1.0" xmlns="http://www.w3.org/2000/svg"
 width="1280.000000pt" height="1280.000000pt" viewBox="0 0 1280.000000 1280.000000"
 preserveAspectRatio="xMidYMid meet">
<metadata>
Created by potrace 1.15, written by Peter Selinger 2001-2017
</metadata>
<g transform="translate(0.000000,1280.000000) scale(0.100000,-0.100000)"
fill="#000000" stroke="none">
<path d="M4202 11749 c-171 -22 -300 -87 -428 -214 -75 -74 -99 -106 -136
-182 -26 -50 -55 -127 -65 -170 -17 -75 -18 -257 -18 -4788 0 -4487 1 -4713
18 -4780 10 -38 38 -113 64 -165 39 -80 59 -108 137 -185 76 -76 106 -99 186
-138 183 -90 -52 -82 2440 -82 2492 0 2257 -8 2440 82 80 39 110 62 186 138
78 77 98 105 137 185 26 52 54 127 64 165 17 67 18 293 18 4785 0 4492 -1
4718 -18 4785 -10 39 -38 113 -64 165 -39 80 -59 108 -137 185 -103 103 -199
160 -333 198 l-78 22 -2175 1 c-1196 1 -2203 -2 -2238 -7z m2686 -701 c18 -18
15 -94 -4 -112 -14 -14 -71 -16 -484 -16 -413 0 -470 2 -484 16 -19 18 -22 94
-4 112 17 17 959 17 976 0z m1852 -4648 l0 -3810 -2340 0 -2340 0 0 3810 0
3810 2340 0 2340 0 0 -3810z m-2270 -4141 c196 -31 349 -185 382 -383 37 -225
-113 -452 -337 -511 -260 -67 -520 103 -566 371 -41 239 132 483 371 523 76
12 77 12 150 0z"/>
</g>
</svg>


